<?xml version="1.0" standalone="no"?>
<!DOCTYPE svg PUBLIC "-//W3C//DTD SVG 20010904//EN"
 "http://www.w3.org/TR/2001/REC-SVG-20010904/DTD/svg10.dtd">
<svg version="1.0" xmlns="http://www.w3.org/2000/svg"
 width="1024.000000pt" height="1024.000000pt" viewBox="0 0 1024.000000 1024.000000"
 preserveAspectRatio="xMidYMid meet">
<metadata>
Created by potrace 1.11, written by Peter Selinger 2001-2013
</metadata>
<g transform="translate(0.000000,1024.000000) scale(0.100000,-0.100000)"
fill="#000000" stroke="none">
<path d="M0 5120 l0 -5120 5120 0 5120 0 0 5120 0 5120 -5120 0 -5120 0 0
-5120z m3450 2013 c288 -47 596 -198 819 -401 l65 -58 -129 -155 c-70 -85
-132 -158 -136 -163 -4 -5 -34 15 -66 43 -265 237 -593 345 -946 313 -197 -18
-344 -75 -454 -175 -72 -67 -107 -120 -137 -208 -67 -202 -24 -404 116 -543
123 -122 218 -173 728 -391 190 -81 400 -174 467 -207 421 -206 627 -467 673
-853 30 -246 -33 -518 -163 -713 -171 -255 -454 -434 -803 -509 -119 -25 -146
-27 -359 -27 -256 0 -333 9 -546 68 -281 77 -541 226 -784 448 l-59 55 148
171 c81 95 151 172 155 172 4 0 18 -12 32 -26 13 -14 58 -54 99 -89 220 -183
479 -306 740 -351 132 -22 400 -15 518 15 217 55 388 182 462 346 41 91 55
159 54 275 -1 193 -75 339 -229 457 -88 68 -338 191 -745 368 -466 202 -609
284 -752 426 -355 354 -386 905 -72 1297 194 243 494 394 857 432 108 11 328
3 447 -17z m2756 -1088 c206 -572 437 -1222 513 -1445 162 -472 151 -442 164
-437 12 4 34 68 157 452 50 154 265 773 478 1375 l389 1095 301 3 302 2 0
-1970 0 -1970 -235 0 -235 0 0 1043 c1 1156 7 1421 45 1930 15 192 24 351 21
355 -4 3 -10 1 -15 -4 -5 -5 -84 -223 -175 -484 -92 -261 -327 -916 -524
-1455 l-358 -980 -168 0 -168 0 -372 1020 c-205 561 -442 1219 -527 1463 -157
452 -187 515 -174 375 46 -515 48 -603 52 -1955 l4 -1308 -225 0 -226 0 0
1970 0 1970 301 -2 301 -3 374 -1040z"/>
</g>
</svg>
